<svg height="50" preserveAspectRatio="xMidYMid meet" viewBox="0 0 90 37.5" width="120" xmlns="http://www.w3.org/2000/svg" xmlns:xlink="http://www.w3.org/1999/xlink" zoomAndPan="magnify"><clipPath id="a"><path d="m2.375 3.699219h85.113281v29.605469h-85.113281zm0 0"/></clipPath><clipPath id="b"><path d="m72 13h15.488281v14h-15.488281zm0 0"/></clipPath><clipPath id="c"><path d="m3 3.699219h27v28.300781h-27zm0 0"/></clipPath><clipPath id="d"><path d="m72 13h15.488281v12h-15.488281zm0 0"/></clipPath><clipPath id="e"><path d="m3 3.699219h27v25.300781h-27zm0 0"/></clipPath><clipPath id="f"><path d="m72 13h15.488281v8h-15.488281zm0 0"/></clipPath><clipPath id="g"><path d="m3 3.699219h21v22.300781h-21zm0 0"/></clipPath><clipPath id="h"><path d="m21 3.699219h9v22.300781h-9zm0 0"/></clipPath><g clip-path="url(#a)"><path d="m10.664062 32.570312c.039063-.042968.0625-.082031.0625-.125 0-.082031-.085937-.152343-.25-.207031l-1.132812-.246093c-.742188-.222657-1.375-.597657-1.898438-1.136719-.519531-.550781-.78125-1.316407-.78125-2.292969v-19.855469l13.152344 22.890625c.070313.097656.117188.214844.144532.351563.042968.136719.0625.25.0625.332031 0 .21875.109374.328125.332031.328125h7.441406c.109375 0 .1875-.011719.226563-.039063.042968-.042968.0625-.082031.0625-.125 0-.054687-.027344-.144531-.082032-.269531-.054687-.136719-.164062-.347656-.328125-.636719l-1.527343-2.519531c-.054688-.125-.109376-.257812-.164063-.394531s-.082031-.296875-.082031-.472656v-20.402344c0-.980469.257812-1.742188.78125-2.292969.523437-.550781 1.15625-.929687 1.898437-1.136719l.824219-.246093c.164062-.058594.246094-.125.246094-.207031 0-.042969-.019532-.078126-.0625-.105469-.027344-.039063-.074219-.0625-.140625-.0625h-7.898438c-.070312 0-.125.023437-.164062.0625-.027344.027343-.042969.0625-.042969.105469 0 .082031.082031.148437.246094.207031l1.113281.246093c.769531.21875 1.410156.605469 1.917969 1.15625.523437.535157.785156 1.292969.785156 2.273438v19.902344l-3.757812-6.71875c-.125.066406-.257813.128906-.390626.1875-.835937.375-1.628906.582031-2.378906.625-.742187.027344-1.394531-.101563-1.953125-.390625-.566406-.300781-.984375-.757813-1.257812-1.371094-.273438-.613281-.324219-1.21875-.144531-1.816406.09375-.324219.246093-.636719.449218-.9375-.214844-.050781-.414062-.121094-.605468-.207031-.523438-.253907-.910157-.664063-1.164063-1.234376-.257813-.574218-.3125-1.148437-.164063-1.710937.144532-.570313.457032-1.105469.9375-1.601563.375-.382812.832032-.722656 1.375-1.015624l-4.121093-7.367188c-.082031-.152344-.160157-.253906-.226563-.308594-.054687-.058594-.125-.085937-.207031-.085937h-7.9375c-.082031 0-.136719.007812-.164063.023437-.027343.011719-.042968.039063-.042968.082032 0 .039062.035156.117187.101562.226562.085938.097656.152344.214844.207032.351562l1.960937 3.34375c.121094.195313.191406.339844.203125.433594.027344.082032.042969.222656.042969.414063v19.988281c0 .976562-.261719 1.734375-.785157 2.273438-.519531.535156-1.152343.921874-1.894531 1.15625l-.824219.246093c-.167968.054688-.25.125-.25.207031 0 .042969.015626.082032.042969.125.039063.027344.097657.039063.164063.039063h7.898437c.066407 0 .117188-.011719.144531-.039063zm6.863282-19.007812c-.070313.074219-.125.164062-.164063.265625-.085937.199219-.070312.429687.046875.691406.113282.253907.273438.417969.480469.5.15625.058594.308594.070313.46875.03125zm1.914062 3.421875c-.007812.003906-.015625.007813-.019531.011719-.308594.136718-.519531.339844-.636719.609375-.113281.253906-.101562.535156.035156.84375.136719.304687.339844.507812.609376.601562.273437.082031.5625.054688.871093-.082031.070313-.03125.132813-.0625.191407-.101562zm26.40625 5.488281c.097656-.097656.144532-.214844.144532-.351562 0-1.582032-.335938-2.996094-1.011719-4.234375-.671875-1.253907-1.628907-2.238281-2.863281-2.953125-1.226563-.730469-2.683594-1.09375-4.375-1.09375-1.921876 0-3.601563.40625-5.027344 1.21875-1.417969.8125-2.511719 1.960937-3.28125 3.449218-.769532 1.472657-1.152344 3.21875-1.152344 5.246094 0 1.828125.382812 3.445313 1.152344 4.851563.785156 1.390625 1.855468 2.476562 3.21875 3.261719 1.375.769531 2.953125 1.15625 4.742187 1.15625 1.59375 0 3.023438-.328126 4.289063-.992188 1.261718-.671875 2.265625-1.589844 3.007812-2.746094.757813-1.15625 1.15625-2.464844 1.199219-3.921875 0-.082031-.023437-.136719-.0625-.164062-.027344-.027344-.0625-.042969-.105469-.042969-.011718 0-.039062.015625-.082031.042969-.027344.011719-.039063.054687-.039063.121093-.085937 1.296876-.605468 2.328126-1.570312 3.097657-.960938.773437-2.171875 1.15625-3.628906 1.15625-1.910156 0-3.449219-.671875-4.617188-2.023438-.976562-1.136719-1.542968-2.789062-1.703125-4.957031h11.332031c.207032 0 .351563-.039062.433594-.121094zm-6.390625-.332031h-5.402343c-.015626-.285156-.023438-.582031-.023438-.886719 0-1.679687.125-3.027344.371094-4.046875.261718-1.035156.613281-1.777343 1.054687-2.230469.453125-.457031.960938-.683593 1.523438-.683593.742187 0 1.402343.59375 1.980469 1.777343.578124 1.171876.867187 3.050782.867187 5.636719 0 .289063-.125.433594-.371094.433594zm12.574219 10.46875h2.578125c.097656 0 .1875-.019531.269531-.058594.082032-.058593.136719-.132812.164063-.230469l4.175781-13.515624 4.421875 13.457031c.042969.121093.097656.210937.164063.265625.085937.054687.1875.082031.3125.082031h2.574218c.113282 0 .199219-.019531.269532-.058594.082031-.058593.144531-.140625.1875-.25l4.65625-15.238281c.179687-.59375.421874-1.082031.722656-1.46875.316406-.382812.652344-.644531 1.011718-.785156l.472657-.183594c.097656-.027344.160156-.054688.1875-.082031.039062-.027344.0625-.0625.0625-.105469 0-.066406-.023438-.109375-.0625-.121094-.042969-.027344-.097657-.042968-.164063-.042968h-4.601562c-.054688 0-.101563.015624-.140625.042968-.042969.011719-.0625.054688-.0625.121094 0 .042969.011719.078125.039062.105469.042969.027343.109375.054687.207031.082031l.886719.183594c.496094.097656.824219.332031.988281.703125.167969.371093.160157.859375-.019531 1.46875l-3.035156 9.945312-3.460937-10.957031c-.109376-.320312-.117188-.550781-.019532-.703125s.371094-.277344.824219-.371094l1.15625-.269531c.09375-.027344.15625-.054688.183594-.082031.027343-.027344.042969-.0625.042969-.105469 0-.109375-.070313-.164062-.207032-.164062h-9.898437c-.136719 0-.203125.054687-.203125.164062 0 .042969.011718.078125.039062.105469.042969.027343.109375.054687.207032.082031l.535156.125c.136718.011719.253906.074219.351562.183594s.191406.304687.289063.578125l.828125 2.527343-2.75 8.949219-3.542969-10.960937c-.109375-.34375-.125-.617188-.042969-.824219.085938-.207031.296875-.335937.640625-.394531l1.03125-.183594c.097657-.027344.15625-.054688.183594-.082031.042969-.027344.0625-.0625.0625-.105469 0-.066406-.019531-.109375-.0625-.121094-.027344-.027344-.074219-.042968-.140625-.042968h-9.960938c-.054687 0-.101562.015624-.144531.042968-.042969.011719-.0625.054688-.0625.121094 0 .042969.019531.078125.0625.105469.027344.027343.082031.054687.164063.082031l.804687.164062c.191407.042969.34375.109376.453125.207032s.195313.253906.25.476562l5.648438 16.808594c.039062.125.097656.210938.164062.269531.082032.039063.1875.058594.308594.058594zm30.285156-.761719c-.484375.425782-1.140625.640625-1.980468.640625-1.113282 0-2.226563-.433593-3.339844-1.300781-1.113282-.882812-2.28125-2.347656-3.507813-4.398438-.039062-.070312-.082031-.117187-.121093-.144531-.042969-.042969-.082032-.050781-.125-.023437-.054688.042968-.097657.105468-.125.1875-.011719.070312-.011719.191406 0 .371094l.804687 5.226562c.027344.175781.082031.300781.164063.371094.085937.082031.167968.121094.25.121094.136718 0 .390624-.09375.761718-.289063.386719-.175781.757813-.355469 1.113282-.535156.359374-.179688.585937-.269531.679687-.269531.082031 0 .289063.105468.621094.3125.34375.191406.789062.390624 1.339843.597656.5625.207031 1.230469.308594 2 .308594 1.222657 0 2.328126-.242188 3.320313-.722657 1.003906-.480469 1.800781-1.15625 2.390625-2.023437.589844-.882813.886719-1.925782.886719-3.140625 0-.988281-.199219-1.898438-.597657-2.722657-.386718-.828124-1.03125-1.558593-1.9375-2.191406-.90625-.644531-2.125-1.191406-3.652343-1.628906-1.222657-.34375-2.164063-.703125-2.824219-1.074219-.660156-.371093-1.121094-.777343-1.378906-1.21875-.261719-.453125-.394532-.949219-.394532-1.488281 0-.757812.242188-1.363281.722657-1.816406.480469-.46875 1.183593-.703125 2.101562-.703125.894531 0 1.734375.195312 2.515625.578125.785156.386718 1.570313 1.046875 2.351563 1.984375.796875.921875 1.652343 2.195312 2.558593 3.820312.039063.054688.082032.097657.121094.125.058594.011719.105469.011719.144532 0 .054687-.027343.089843-.085937.105468-.167969.027344-.082031.019532-.183593-.023437-.308593l-.96875-6.214844c-.027344-.125-.074219-.199219-.144531-.226563-.054688-.027343-.109376-.042968-.164063-.042968-.136719 0-.40625.082031-.804687.246094-.382813.152343-.78125.3125-1.195313.476562-.398437.152344-.671875.226562-.824219.226562-.097656 0-.289062-.074218-.578125-.226562-.289062-.164062-.707031-.324219-1.257812-.476562-.546875-.164063-1.25-.246094-2.101563-.246094-2.089844 0-3.761718.496094-5.011718 1.488281-1.234376.976563-1.855469 2.378906-1.855469 4.210937 0 1.058594.199219 2.015626.597656 2.871094.414063.839844 1.105469 1.601563 2.082031 2.292969.976563.671875 2.324219 1.300781 4.042969 1.878906 1.015625.328125 1.8125.671875 2.390625 1.03125.59375.359375 1.003906.742188 1.238281 1.15625.234375.414063.351563.875.351563 1.382813 0 .703125-.25 1.269531-.742188 1.695312zm0 0" fill="#424141" fill-rule="evenodd"/></g><g clip-path="url(#b)"><path d="m87.292969 26.714844c-.046875-.828125-.242188-1.59375-.585938-2.300782-.382812-.828124-1.027343-1.558593-1.9375-2.191406-.90625-.644531-2.121093-1.191406-3.648437-1.628906-1.222656-.34375-2.164063-.703125-2.824219-1.074219-.660156-.371093-1.121094-.777343-1.382813-1.21875-.261718-.453125-.390624-.949219-.390624-1.488281 0-.757812.238281-1.363281.722656-1.816406.480468-.46875 1.179687-.703125 2.101562-.703125.894532 0 1.730469.195312 2.515625.578125.785157.386718 1.566407 1.046875 2.351563 1.984375.796875.921875 1.648437 2.195312 2.554687 3.820312.042969.054688.082031.097657.125.125.054688.011719.101563.011719.144531 0 .054688-.027343.089844-.085937.101563-.167969.027344-.082031.023437-.183593-.019531-.308593l-.96875-6.214844c-.027344-.125-.074219-.199219-.144532-.226563-.054687-.027343-.109374-.042968-.164062-.042968-.136719 0-.40625.082031-.804688.246094-.386718.152343-.785156.3125-1.195312.476562-.398438.152344-.675781.226562-.824219.226562-.097656 0-.289062-.074218-.578125-.226562-.289062-.164062-.707031-.324219-1.257812-.476562-.550782-.164063-1.25-.246094-2.105469-.246094-2.085937 0-3.757813.496094-5.007813 1.488281-1.238281.976563-1.855468 2.378906-1.855468 4.210937 0 1.058594.199218 2.015626.597656 2.871094.410156.839844 1.105469 1.601563 2.082031 2.292969.167969.117187.347657.230469.539063.34375 3.941406.339844 7.972656.902344 11.859375 1.667969zm0 0" fill="#767676"/></g><g fill="#767676"><path d="m69.328125 24.699219 2.335937-7.636719c.179688-.59375.417969-1.082031.722657-1.46875.316406-.382812.652343-.644531 1.007812-.785156l.476563-.183594c.097656-.027344.15625-.054688.183594-.082031.042968-.027344.0625-.0625.0625-.105469 0-.066406-.019532-.109375-.0625-.121094-.039063-.027344-.09375-.042968-.164063-.042968h-4.597656c-.054688 0-.101563.015624-.144531.042968-.039063.011719-.0625.054688-.0625.121094 0 .042969.015624.078125.042968.105469.039063.027343.109375.054687.207032.082031l.886718.183594c.492188.097656.824219.332031.988282.703125.164062.371093.15625.859375-.019532 1.46875l-2.355468 7.707031c.164062.003906.328124.007812.492187.011719zm0 0"/><path d="m67.441406 24.664062-2.746094-8.695312c-.109374-.320312-.117187-.550781-.019531-.703125.09375-.152344.371094-.277344.824219-.371094l1.152344-.269531c.097656-.027344.160156-.054688.1875-.082031.027344-.027344.039062-.0625.039062-.105469 0-.109375-.066406-.164062-.203125-.164062h-9.898437c-.136719 0-.207032.054687-.207032.164062 0 .042969.015626.078125.042969.105469.039063.027343.109375.054687.203125.082031l.539063.125c.136719.011719.253906.074219.351562.183594.09375.109375.191407.304687.285157.578125l.832031 2.527343-2.265625 7.367188c.164062-.027344.332031-.054688.503906-.082031l2.015625-6.519531 1.992187 6.066406c2.003907-.152344 4.140626-.222656 6.371094-.207032zm0 0"/><path d="m49.796875 27.457031c1.492187-.804687 3.476563-1.425781 5.816406-1.878906l-3.082031-9.550781c-.113281-.34375-.125-.617188-.042969-.824219s.296875-.335937.640625-.394531l1.03125-.183594c.09375-.027344.15625-.054688.183594-.082031.042969-.027344.0625-.0625.0625-.105469 0-.066406-.019531-.109375-.0625-.121094-.027344-.027344-.074219-.042968-.144531-.042968h-9.957031c-.058594 0-.105469.015624-.144532.042968-.042968.011719-.0625.054688-.0625.121094 0 .042969.019532.078125.0625.105469.027344.027343.082032.054687.164063.082031l.804687.164062c.191406.042969.34375.109376.453125.207032s.191407.253906.246094.476562zm0 0"/></g><g clip-path="url(#c)"><path d="m5.917969 29.554688c.242187.039062.484375.074218.734375.109374-.085938-.328124-.132813-.695312-.132813-1.101562v-19.855469l12.714844 22.121094c2.613281.136719 5.324219.222656 8.007813.230469l-1.234376-2.039063c-.058593-.125-.113281-.257812-.167968-.394531-.054688-.136719-.082032-.296875-.082032-.472656v-20.402344c0-.980469.261719-1.742188.785157-2.292969.519531-.550781 1.152343-.929687 1.894531-1.136719l.828125-.246093c.164063-.058594.246094-.125.246094-.207031 0-.042969-.019531-.078126-.0625-.105469-.027344-.039063-.074219-.0625-.144531-.0625h-7.898438c-.066406 0-.121094.023437-.164062.0625-.027344.027343-.039063.0625-.039063.105469 0 .082031.082031.148437.246094.207031l1.113281.246093c.769531.21875 1.410156.605469 1.917969 1.15625.523437.535157.78125 1.292969.78125 2.273438v19.902344l-3.753907-6.71875c-.128906.066406-.257812.128906-.390624.1875-.839844.375-1.632813.582031-2.378907.625-.742187.027344-1.394531-.101563-1.957031-.390625-.5625-.300781-.984375-.757813-1.257812-1.371094-.273438-.613281-.320313-1.21875-.144532-1.816406.097656-.324219.246094-.636719.449219-.9375-.210937-.050781-.414063-.121094-.601563-.207031-.523437-.253907-.914062-.664063-1.164062-1.234376-.257812-.574218-.3125-1.148437-.164062-1.710937.144531-.570313.457031-1.105469.9375-1.601563.371093-.382812.832031-.722656 1.375-1.015624l-4.125-7.367188c-.082032-.152344-.15625-.253906-.226563-.308594-.054687-.058594-.121094-.085937-.203125-.085937h-7.941406c-.082032 0-.136719.007812-.164063.023437-.027343.011719-.039062.039063-.039062.082032 0 .039062.03125.117187.101562.226562.082031.097656.152344.214844.207031.351562l1.957032 3.34375c.125.195313.195312.339844.207031.433594.027344.082032.042969.222656.042969.414063v19.988281c0 .363281-.039063.691406-.109375.992188zm0 0" fill="#767676"/></g><path d="m44.304688 29.648438c-3.539063.824218-8.132813 1.238281-13.019532 1.367187-.796875-.664063-1.460937-1.46875-1.992187-2.410156-.769531-1.40625-1.15625-3.023438-1.15625-4.851563 0-2.027344.386719-3.773437 1.15625-5.246094.769531-1.488281 1.863281-2.636718 3.277343-3.449218 1.429688-.8125 3.105469-1.21875 5.03125-1.21875 1.691407 0 3.148438.363281 4.371094 1.09375 1.238282.714844 2.191406 1.699218 2.867188 2.953125.671875 1.238281 1.011718 2.652343 1.011718 4.234375 0 .136718-.050781.253906-.144531.351562-.085937.082032-.230469.121094-.433593.121094h-11.335938c.160156 2.167969.730469 3.820312 1.707031 4.957031 1.167969 1.351563 2.707031 2.023438 4.617188 2.023438 1.457031 0 2.667969-.382813 3.628906-1.15625.960937-.769531 1.484375-1.800781 1.566406-3.097657 0-.066406.015625-.109374.042969-.121093.039062-.027344.066406-.042969.082031-.042969.039063 0 .074219.015625.101563.042969.042968.027343.0625.082031.0625.164062-.039063 1.457031-.441406 2.765625-1.195313 3.921875-.078125.125-.160156.246094-.246093.363282zm-10.394532-7.507813h5.402344c.246094 0 .371094-.144531.371094-.433594 0-2.585937-.289063-4.464843-.867188-5.636719-.574218-1.183593-1.234375-1.777343-1.976562-1.777343-.566406 0-1.074219.226562-1.527344.683593-.4375.453126-.789062 1.195313-1.050781 2.230469-.246094 1.019531-.371094 2.367188-.371094 4.046875 0 .304688.007813.601563.019531.886719zm0 0" fill="#767676" fill-rule="evenodd"/><path d="m17.21875 13.828125c.039062-.101563.09375-.191406.164062-.265625l.832032 1.488281c-.15625.039063-.3125.027344-.464844-.03125-.207031-.082031-.367188-.246093-.480469-.5-.117187-.261719-.132812-.492187-.050781-.691406zm0 0" fill="#767676"/><path d="m19.277344 16.996094c.007812-.003906.015625-.007813.019531-.011719l1.054687 1.882813c-.058593.039062-.125.070312-.195312.101562-.304688.136719-.59375.164062-.871094.082031-.269531-.09375-.472656-.296875-.605468-.601562-.136719-.308594-.148438-.589844-.039063-.84375.121094-.269531.332031-.472657.636719-.609375zm0 0" fill="#767676"/><g clip-path="url(#d)"><path d="m86.882812 24.808594c-.054687-.132813-.109374-.265625-.175781-.394532-.382812-.828124-1.027343-1.558593-1.9375-2.191406-.90625-.644531-2.121093-1.191406-3.648437-1.628906-1.222656-.34375-2.164063-.703125-2.824219-1.074219-.660156-.371093-1.121094-.777343-1.382813-1.21875-.261718-.453125-.390624-.949219-.390624-1.488281 0-.757812.238281-1.363281.722656-1.816406.480468-.46875 1.179687-.703125 2.101562-.703125.894532 0 1.730469.195312 2.515625.578125.785157.386718 1.566407 1.046875 2.351563 1.984375.796875.921875 1.648437 2.195312 2.554687 3.820312.042969.054688.082031.097657.125.125.054688.011719.101563.011719.144531 0 .054688-.027343.089844-.085937.101563-.167969.027344-.082031.023437-.183593-.019531-.308593l-.96875-6.214844c-.027344-.125-.074219-.199219-.144532-.226563-.054687-.027343-.109374-.042968-.164062-.042968-.136719 0-.40625.082031-.804688.246094-.386718.152343-.785156.3125-1.195312.476562-.398438.152344-.675781.226562-.824219.226562-.097656 0-.289062-.074218-.578125-.226562-.289062-.164062-.707031-.324219-1.257812-.476562-.550782-.164063-1.25-.246094-2.105469-.246094-2.085937 0-3.757813.496094-5.007813 1.488281-1.238281.976563-1.855468 2.378906-1.855468 4.210937 0 .863282.132812 1.660157.398437 2.390626 5.335938.515624 10.195313 1.609374 14.269531 2.878906zm0 0" fill="#ddd"/></g><path d="m70.234375 21.738281 1.429687-4.675781c.179688-.59375.417969-1.082031.722657-1.46875.316406-.382812.652343-.644531 1.007812-.785156l.476563-.183594c.097656-.027344.15625-.054688.183594-.082031.042968-.027344.0625-.0625.0625-.105469 0-.066406-.019532-.109375-.0625-.121094-.039063-.027344-.09375-.042968-.164063-.042968h-4.597656c-.054688 0-.101563.015624-.144531.042968-.039063.011719-.0625.054688-.0625.121094 0 .042969.015624.078125.042968.105469.039063.027343.109375.054687.207032.082031l.886718.183594c.492188.097656.824219.332031.988282.703125.164062.371093.15625.859375-.019532 1.46875l-1.445312 4.730469c.164062.007812.324218.019531.488281.027343zm0 0" fill="#ddd"/><path d="m66.476562 21.609375-1.78125-5.640625c-.109374-.320312-.117187-.550781-.019531-.703125.09375-.152344.371094-.277344.824219-.371094l1.152344-.269531c.097656-.027344.160156-.054688.1875-.082031.027344-.027344.039062-.0625.039062-.105469 0-.109375-.066406-.164062-.203125-.164062h-9.898437c-.136719 0-.207032.054687-.207032.164062 0 .042969.015626.078125.042969.105469.039063.027343.109375.054687.203125.082031l.539063.125c.136719.011719.253906.074219.351562.183594.09375.109375.191407.304687.285157.578125l.832031 2.527343-1.273438 4.144532c.167969-.019532.335938-.042969.503907-.066406l1.023437-3.3125 1.011719 3.085937c2.167968-.203125 4.300781-.292969 6.386718-.28125zm0 0" fill="#ddd"/><path d="m48.667969 24.109375c2.011719-.605469 4.015625-1.085937 6-1.457031l-2.136719-6.625c-.113281-.34375-.125-.617188-.042969-.824219s.296875-.335937.640625-.394531l1.03125-.183594c.09375-.027344.15625-.054688.183594-.082031.042969-.027344.0625-.0625.0625-.105469 0-.066406-.019531-.109375-.0625-.121094-.027344-.027344-.074219-.042968-.144531-.042968h-9.957031c-.058594 0-.105469.015624-.144532.042968-.042968.011719-.0625.054688-.0625.121094 0 .042969.019532.078125.0625.105469.027344.027343.082032.054687.164063.082031l.804687.164062c.191406.042969.34375.109376.453125.207032s.191407.253906.246094.476562zm0 0" fill="#ddd"/><g clip-path="url(#e)"><path d="m6.027344 26.03125c.160156.046875.324218.09375.492187.144531v-17.46875l11.058594 19.242188c2.53125.171875 5.273437.21875 8.179687.109375v-20.308594c0-.980469.261719-1.742188.785157-2.292969.519531-.550781 1.152343-.929687 1.894531-1.136719l.828125-.246093c.164063-.058594.246094-.125.246094-.207031 0-.042969-.019531-.078126-.0625-.105469-.027344-.039063-.074219-.0625-.144531-.0625h-7.898438c-.066406 0-.121094.023437-.164062.0625-.027344.027343-.039063.0625-.039063.105469 0 .082031.082031.148437.246094.207031l1.113281.246093c.769531.21875 1.410156.605469 1.917969 1.15625.523437.535157.78125 1.292969.78125 2.273438v19.902344l-3.753907-6.71875c-.128906.066406-.257812.128906-.390624.1875-.839844.375-1.632813.582031-2.378907.625-.742187.027344-1.394531-.101563-1.957031-.390625-.5625-.300781-.984375-.757813-1.257812-1.371094-.273438-.613281-.320313-1.21875-.144532-1.816406.097656-.324219.246094-.636719.449219-.9375-.210937-.050781-.414063-.121094-.601563-.207031-.523437-.253907-.914062-.664063-1.164062-1.234376-.257812-.574218-.3125-1.148437-.164062-1.710937.144531-.570313.457031-1.105469.9375-1.601563.371093-.382812.832031-.722656 1.375-1.015624l-4.125-7.367188c-.082032-.152344-.15625-.253906-.226563-.308594-.054687-.058594-.121094-.085937-.203125-.085937h-7.941406c-.082032 0-.136719.007812-.164063.023437-.027343.011719-.039062.039063-.039062.082032 0 .039062.03125.117187.101562.226562.082031.097656.152344.214844.207031.351562l1.957032 3.34375c.125.195313.195312.339844.207031.433594.027344.082032.042969.222656.042969.414063zm0 0" fill="#ddd"/></g><path d="m35.332031 27.152344c-2.195312.328125-4.332031.566406-6.398437.722656-.53125-1.226562-.796875-2.601562-.796875-4.121094 0-2.027344.386719-3.773437 1.15625-5.246094.769531-1.488281 1.863281-2.636718 3.277343-3.449218 1.429688-.8125 3.105469-1.21875 5.03125-1.21875 1.691407 0 3.148438.363281 4.371094 1.09375 1.238282.714844 2.191406 1.699218 2.867188 2.953125.671875 1.238281 1.011718 2.652343 1.011718 4.234375 0 .136718-.050781.253906-.144531.351562-.085937.082032-.230469.121094-.433593.121094h-11.335938c.144531 1.925781.609375 3.445312 1.394531 4.558594zm-1.421875-5.011719h5.402344c.246094 0 .371094-.144531.371094-.433594 0-2.585937-.289063-4.464843-.867188-5.636719-.574218-1.183593-1.234375-1.777343-1.976562-1.777343-.566406 0-1.074219.226562-1.527344.683593-.4375.453126-.789062 1.195313-1.050781 2.230469-.246094 1.019531-.371094 2.367188-.371094 4.046875 0 .304688.007813.601563.019531.886719zm0 0" fill="#ddd" fill-rule="evenodd"/><path d="m17.21875 13.828125c.039062-.101563.09375-.191406.164062-.265625l.832032 1.488281c-.15625.039063-.3125.027344-.464844-.03125-.207031-.082031-.367188-.246093-.480469-.5-.117187-.261719-.132812-.492187-.050781-.691406zm0 0" fill="#ddd"/><path d="m19.277344 16.996094c.007812-.003906.015625-.007813.019531-.011719l1.054687 1.882813c-.058593.039062-.125.070312-.195312.101562-.304688.136719-.59375.164062-.871094.082031-.269531-.09375-.472656-.296875-.605468-.601562-.136719-.308594-.148438-.589844-.039063-.84375.121094-.269531.332031-.472657.636719-.609375zm0 0" fill="#ddd"/><g clip-path="url(#f)"><path d="m82.335938 20.988281c-.378907-.140625-.785157-.273437-1.214844-.394531-1.222656-.34375-2.164063-.703125-2.824219-1.074219-.660156-.371093-1.121094-.777343-1.382813-1.21875-.261718-.453125-.390624-.949219-.390624-1.488281 0-.757812.238281-1.363281.722656-1.816406.480468-.46875 1.179687-.703125 2.101562-.703125.894532 0 1.730469.195312 2.515625.578125.785157.386718 1.566407 1.046875 2.351563 1.984375.796875.921875 1.648437 2.195312 2.554687 3.820312.042969.054688.082031.097657.125.125.054688.011719.101563.011719.144531 0 .054688-.027343.089844-.085937.101563-.167969.027344-.082031.023437-.183593-.019531-.308593l-.96875-6.214844c-.027344-.125-.074219-.199219-.144532-.226563-.054687-.027343-.109374-.042968-.164062-.042968-.136719 0-.40625.082031-.804688.246094-.386718.152343-.785156.3125-1.195312.476562-.398438.152344-.675781.226562-.824219.226562-.097656 0-.289062-.074218-.578125-.226562-.289062-.164062-.707031-.324219-1.257812-.476562-.550782-.164063-1.25-.246094-2.105469-.246094-2.085937 0-3.757813.496094-5.007813 1.488281-1.136718.898437-1.753906 2.15625-1.84375 3.777344 3.640626.410156 7.046876 1.082031 10.109376 1.882812zm0 0" fill="#fafafa"/></g><path d="m71.074219 18.984375.589843-1.921875c.179688-.59375.417969-1.082031.722657-1.46875.316406-.382812.652343-.644531 1.007812-.785156l.476563-.183594c.097656-.027344.15625-.054688.183594-.082031.042968-.027344.0625-.0625.0625-.105469 0-.066406-.019532-.109375-.0625-.121094-.039063-.027344-.09375-.042968-.164063-.042968h-4.597656c-.054688 0-.101563.015624-.144531.042968-.039063.011719-.0625.054688-.0625.121094 0 .042969.015624.078125.042968.105469.039063.027343.109375.054687.207032.082031l.886718.183594c.492188.097656.824219.332031.988282.703125.164062.371093.15625.859375-.019532 1.46875l-.601562 1.960937c.164062.015625.324218.027344.484375.042969zm0 0" fill="#fafafa"/><path d="m65.550781 18.679688-.855469-2.710938c-.109374-.320312-.117187-.550781-.019531-.703125.09375-.152344.371094-.277344.824219-.371094l1.152344-.269531c.097656-.027344.160156-.054688.1875-.082031.027344-.027344.039062-.0625.039062-.105469 0-.109375-.066406-.164062-.203125-.164062h-9.898437c-.136719 0-.207032.054687-.207032.164062 0 .042969.015626.078125.042969.105469.039063.027343.109375.054687.203125.082031l.539063.125c.136719.011719.253906.074219.351562.183594.09375.109375.191407.304687.285157.578125l.832031 2.527343-.285157.925782.503907-.046875.035156-.113281.03125.109374c2.191406-.191406 4.34375-.261718 6.441406-.234374zm0 0" fill="#fafafa"/><path d="m47.640625 21.046875c2.027344-.59375 4.050781-1.058594 6.050781-1.417969l-1.160156-3.601562c-.113281-.34375-.125-.617188-.042969-.824219s.296875-.335937.640625-.394531l1.03125-.183594c.09375-.027344.15625-.054688.183594-.082031.042969-.027344.0625-.0625.0625-.105469 0-.066406-.019531-.109375-.0625-.121094-.027344-.027344-.074219-.042968-.144531-.042968h-9.957031c-.058594 0-.105469.015624-.144532.042968-.042968.011719-.0625.054688-.0625.121094 0 .042969.019532.078125.0625.105469.027344.027343.082032.054687.164063.082031l.804687.164062c.191406.042969.34375.109376.453125.207032s.191407.253906.246094.476562zm0 0" fill="#fafafa"/><g clip-path="url(#g)"><path d="m6.027344 23.496094c.160156.042968.324218.082031.492187.125v-14.914063l9.363281 16.292969c2.46875.171875 5.140626.230469 7.972657.136719l-2.347657-4.203125c-.128906.066406-.257812.128906-.390624.1875-.839844.375-1.632813.582031-2.378907.625-.742187.027344-1.394531-.101563-1.957031-.390625-.5625-.300781-.984375-.757813-1.257812-1.371094-.273438-.613281-.320313-1.21875-.144532-1.816406.097656-.324219.246094-.636719.449219-.9375-.210937-.050781-.414063-.121094-.601563-.207031-.523437-.253907-.914062-.664063-1.164062-1.234376-.257812-.574218-.3125-1.148437-.164062-1.710937.144531-.570313.457031-1.105469.9375-1.601563.371093-.382812.832031-.722656 1.375-1.015624l-4.125-7.367188c-.082032-.152344-.15625-.253906-.226563-.308594-.054687-.058594-.121094-.085937-.203125-.085937h-7.941406c-.082032 0-.136719.007812-.164063.023437-.027343.011719-.039062.039063-.039062.082032 0 .039062.03125.117187.101562.226562.082031.097656.152344.214844.207031.351562l1.957032 3.34375c.125.195313.195312.339844.207031.433594.027344.082032.042969.222656.042969.414063zm0 0" fill="#fafafa"/></g><g clip-path="url(#h)"><path d="m25.261719 25.078125c.167969-.007813.332031-.015625.496093-.023437v-17.304688c0-.980469.261719-1.742188.785157-2.292969.519531-.550781 1.152343-.929687 1.894531-1.136719l.828125-.246093c.164063-.058594.246094-.125.246094-.207031 0-.042969-.019531-.078126-.0625-.105469-.027344-.039063-.074219-.0625-.144531-.0625h-7.898438c-.066406 0-.121094.023437-.164062.0625-.027344.027343-.039063.0625-.039063.105469 0 .082031.082031.148437.246094.207031l1.113281.246093c.769531.21875 1.410156.605469 1.917969 1.15625.523437.535157.78125 1.292969.78125 2.273438zm0 0" fill="#fafafa"/></g><path d="m34.144531 24.175781c-2.039062.3125-4.027343.546875-5.957031.707031-.03125-.367187-.050781-.746093-.050781-1.128906 0-2.027344.386719-3.773437 1.15625-5.246094.769531-1.488281 1.863281-2.636718 3.277343-3.449218 1.429688-.8125 3.105469-1.21875 5.03125-1.21875 1.691407 0 3.148438.363281 4.371094 1.09375 1.238282.714844 2.191406 1.699218 2.867188 2.953125.597656 1.097656.929687 2.332031.996094 3.699219-1.265626.367187-2.519532.703124-3.761719 1.007812h-8.136719c.042969.5625.109375 1.089844.207031 1.582031zm-.234375-2.035156h5.402344c.246094 0 .371094-.144531.371094-.433594 0-2.585937-.289063-4.464843-.867188-5.636719-.574218-1.183593-1.234375-1.777343-1.976562-1.777343-.566406 0-1.074219.226562-1.527344.683593-.4375.453126-.789062 1.195313-1.050781 2.230469-.246094 1.019531-.371094 2.367188-.371094 4.046875 0 .304688.007813.601563.019531.886719zm0 0" fill="#fafafa" fill-rule="evenodd"/><path d="m17.21875 13.828125c.039062-.101563.09375-.191406.164062-.265625l.832032 1.488281c-.15625.039063-.3125.027344-.464844-.03125-.207031-.082031-.367188-.246093-.480469-.5-.117187-.261719-.132812-.492187-.050781-.691406zm0 0" fill="#fafafa"/><path d="m19.277344 16.996094c.007812-.003906.015625-.007813.019531-.011719l1.054687 1.882813c-.058593.039062-.125.070312-.195312.101562-.304688.136719-.59375.164062-.871094.082031-.269531-.09375-.472656-.296875-.605468-.601562-.136719-.308594-.148438-.589844-.039063-.84375.121094-.269531.332031-.472657.636719-.609375zm0 0" fill="#fafafa"/></svg>