<svg fill="none" height="81" viewBox="0 0 233 81" width="233" xmlns="http://www.w3.org/2000/svg"><path clip-rule="evenodd" d="m22.5996 78.9856c.113-.113.1695-.226.1695-.339 0-.226-.226-.4144-.678-.565l-3.1074-.678c-2.034-.6027-3.7666-1.6385-5.198-3.1075-1.4313-1.5066-2.1469-3.5971-2.1469-6.2713v-54.3317l36.0463 62.637c.1884.2637.3202.5838.3955.9605.113.3766.1695.678.1695.904 0 .6026.3013.904.904.904h20.3961c.3014 0 .5085-.0377.6215-.113.113-.113.1695-.226.1695-.339 0-.1507-.0753-.3955-.226-.7345-.1506-.3767-.452-.9605-.904-1.7515l-4.1809-6.8929c-.1507-.339-.3013-.6968-.452-1.0734-.1506-.3767-.226-.8099-.226-1.2995v-55.821c0-2.67429.7157-4.76475 2.147-6.27139 1.4313-1.50663 3.1639-2.54245 5.1979-3.10744l2.2599-.67799c.452-.15066.678-.33899.678-.564987 0-.112999-.0565-.207164-.1695-.282495-.0753-.1129987-.2071-.169498-.3955-.169498h-21.6391c-.1883 0-.339.0564993-.452.169498-.0753.075331-.1129.169496-.1129.282495 0 .225997.2259.414327.6779.564987l3.051.67799c2.1093.60265 3.8607 1.6573 5.2544 3.16395 1.4313 1.46897 2.1469 3.54059 2.1469 6.21488v54.4573l-10.2935-18.3781c-.3463.1751-.7038.3448-1.0724.5092-2.2946 1.0236-4.4665 1.593-6.5155 1.7082-2.0353.0796-3.8216-.2774-5.3588-1.0708-1.5483-.8182-2.6966-2.0661-3.445-3.7439-.7484-1.6779-.881-3.3346-.3976-4.9701.263-.8899.673-1.7447 1.23-2.5643-.5813-.1385-1.1326-.33-1.654-.5747-1.4328-.6921-2.496-1.8154-3.1893-3.3699-.7044-1.5791-.8533-3.1398-.4466-4.682.3956-1.5669 1.2523-3.0288 2.5699-4.3857 1.0205-1.0508 2.2747-1.9753 3.7628-2.7735l-11.2928-20.16202c-.226-.414324-.4332-.696818-.6215-.84748-.1506-.1506668-.339-.226-.565-.226h-21.75207c-.226 0-.37666.0188338-.45199.0565016-.07534.0376632-.113.1129944-.113.2259924 0 .112999.09416.320163.28249.621491.226.263665.41433.583825.56499.960485l5.3674 9.15283c.339.5273.52728.9228.56498 1.1865.0753.226.113.6026.113 1.13v54.691c0 2.6742-.71564 4.7459-2.14695 6.2148-1.43131 1.469-3.16394 2.5237-5.1979 3.164l-2.259963.678c-.451991.1506-.677987.339-.677987.565 0 .113.0376659.226.112998.339.112998.0753.263662.113.451992.113h21.63911c.1883 0 .3202-.0377.3955-.113zm18.8063-52.0018c-.1946.205-.3451.4463-.4514.7238-.2297.5462-.1849 1.1771.1343 1.8927.3081.6908.7476 1.1456 1.3185 1.3643.4205.1611.8468.1912 1.2789.0903zm5.2457 9.3655c-.0188.0081-.0376.0163-.0564.0247-.8389.3742-1.4197.9291-1.7424 1.6647-.309.6999-.2765 1.4693.0977 2.3083.3742.8389.9305 1.3895 1.6688 1.6518.7519.2267 1.5473.1529 2.3862-.2213.1902-.0848.3668-.178.5298-.2796zm72.3564 15.0083c.264-.2637.395-.5839.395-.9605 0-4.3316-.922-8.1924-2.768-11.5823-1.846-3.4276-4.463-6.1207-7.853-8.0794-3.353-1.9963-7.345-2.9944-11.9781-2.9944-5.2732 0-9.8685 1.1111-13.7857 3.3334-3.8796 2.2223-6.8741 5.3674-8.9834 9.4354-2.1093 4.0302-3.1639 8.8138-3.1639 14.3507 0 5.0096 1.0546 9.4353 3.1639 13.2773 2.147 3.8042 5.0849 6.7798 8.8139 8.9268 3.7666 2.1093 8.0982 3.1639 12.9947 3.1639 4.3696 0 8.2866-.904 11.7516-2.7119 3.465-1.8456 6.215-4.3504 8.249-7.5144 2.072-3.1639 3.164-6.7422 3.277-10.7348 0-.226-.056-.3766-.169-.452-.076-.0753-.17-.113-.283-.113-.038 0-.113.0377-.226.113-.075.0377-.113.1507-.113.339-.226 3.5406-1.657 6.3656-4.294 8.4749s-5.951 3.1639-9.944 3.1639c-5.2353 0-9.4539-1.8456-12.6555-5.5369-2.6739-3.1143-4.2312-7.6342-4.6719-13.5597h31.0574c.565 0 .96-.113 1.186-.339zm-17.515-.904h-14.8035c-.0369-.7866-.0554-1.5964-.0554-2.4295 0-4.5952.339-8.2865 1.017-11.0738.7156-2.8249 1.6761-4.8589 2.8814-6.1019 1.243-1.2429 2.6366-1.8644 4.181-1.8644 2.0339 0 3.8419 1.6196 5.4235 4.8589 1.582 3.2016 2.373 8.343 2.373 15.4242 0 .791-.339 1.1865-1.017 1.1865zm34.463 28.645h7.062c.264 0 .509-.0565.735-.1695.226-.1507.376-.3579.452-.6215l11.442-36.9777 12.118 36.8082c.113.339.264.5838.452.7345.226.1506.508.226.847.226h7.063c.301 0 .546-.0565.734-.1695.226-.1507.396-.3767.509-.678l12.768-41.6963c.49-1.6196 1.149-2.9567 1.978-4.0114.866-1.0546 1.789-1.7703 2.768-2.147l1.3-.5084c.263-.0754.433-.1507.508-.226.113-.0754.17-.1695.17-.2825 0-.1884-.057-.3014-.17-.339-.113-.0754-.263-.113-.452-.113h-12.599c-.151 0-.282.0376-.395.113-.113.0376-.17.1506-.17.339 0 .113.038.2071.113.2825.113.0753.301.1506.565.226l2.43.5084c1.355.2637 2.259.904 2.711 1.921s.434 2.3541-.056 4.0114l-8.322 27.2179-9.475-29.9863c-.302-.8663-.32-1.5067-.057-1.921.264-.4143 1.017-.7533 2.26-1.017l3.164-.7344c.264-.0754.433-.1507.509-.226.075-.0754.113-.1695.113-.2825 0-.3014-.189-.452-.565-.452h-27.12c-.376 0-.565.1506-.565.452 0 .113.038.2071.113.2825.113.0753.302.1506.565.226l1.469.3389c.377.0377.697.2072.961.5085.263.3014.527.8287.791 1.582l2.276 6.9157-7.545 24.4791-9.704-29.9823c-.301-.9417-.339-1.695-.113-2.26s.81-.9228 1.752-1.0735l2.825-.5084c.263-.0754.433-.1507.508-.226.113-.0754.17-.1695.17-.2825 0-.1884-.057-.3014-.17-.339-.075-.0754-.207-.113-.395-.113h-27.289c-.151 0-.283.0376-.396.113-.113.0376-.169.1506-.169.339 0 .113.056.2071.169.2825.076.0753.226.1506.452.226l2.204.4519c.527.113.941.3014 1.243.565.301.2637.527.6969.678 1.2995l15.48 45.9902c.113.339.264.5838.452.7345.226.113.509.1695.848.1695zm82.977-2.0905c-1.319 1.1676-3.127 1.7515-5.424 1.7515-3.051 0-6.102-1.1865-9.153-3.5595-3.051-2.4106-6.253-6.422-9.605-12.0343-.113-.1883-.226-.3201-.339-.3954-.113-.113-.226-.1319-.339-.0565-.151.113-.264.2824-.339.5084-.038.1884-.038.5274 0 1.017l2.204 14.2943c.075.4896.226.8286.451 1.0169.226.226.452.339.678.339.377 0 1.074-.2636 2.091-.7909 1.055-.4897 2.072-.9794 3.051-1.469.979-.4897 1.601-.7345 1.864-.7345.226 0 .791.2825 1.695.8475.942.5273 2.166 1.0735 3.673 1.6385 1.544.5649 3.371.8474 5.48.8474 3.352 0 6.385-.6591 9.097-1.9774 2.749-1.3183 4.934-3.164 6.553-5.5369 1.62-2.4106 2.43-5.2733 2.43-8.5879 0-2.7119-.546-5.1979-1.639-7.4578-1.054-2.26-2.825-4.2563-5.311-5.9889-2.485-1.7703-5.819-3.2581-10-4.4634-3.352-.9417-5.932-1.921-7.74-2.938s-3.07-2.1281-3.786-3.3334c-.715-1.243-1.073-2.599-1.073-4.068 0-2.0716.659-3.7289 1.977-4.9719 1.319-1.2806 3.24-1.9209 5.763-1.9209 2.449 0 4.746.5273 6.893 1.5819 2.147 1.0547 4.294 2.8627 6.441 5.4239 2.185 2.5237 4.52 6.0078 7.006 10.4524.113.1506.226.2636.339.3389.151.0377.282.0377.395 0 .151-.0753.245-.226.283-.4519.075-.226.056-.5085-.057-.8475l-2.655-17.0062c-.075-.339-.207-.5462-.396-.6215-.15-.0753-.301-.113-.452-.113-.376 0-1.111.226-2.203.678-1.055.4143-2.147.8475-3.277 1.2995-1.092.4143-1.846.6214-2.26.6214-.264 0-.791-.2071-1.582-.6214-.791-.452-1.94-.8852-3.446-1.2995-1.507-.452-3.428-.678-5.763-.678-5.725 0-10.302 1.356-13.729 4.0679-3.39 2.6743-5.085 6.5162-5.085 11.5258 0 2.9003.546 5.5181 1.638 7.8534 1.13 2.2976 3.032 4.388 5.706 6.2713 2.675 1.8457 6.366 3.5595 11.074 5.1415 2.788.9039 4.972 1.8456 6.554 2.8249 1.62.9793 2.75 2.034 3.39 3.1639.64 1.13.961 2.3918.961 3.7855 0 1.9209-.678 3.4652-2.034 4.6329z" fill="#d9d9d9" fill-rule="evenodd"/><path d="m232.577 62.9708c-.134-2.2665-.669-4.3672-1.605-6.3023-1.054-2.26-2.825-4.2563-5.31-5.9889-2.486-1.7703-5.82-3.2581-10.001-4.4634-3.352-.9417-5.932-1.921-7.74-2.938s-3.07-2.1281-3.786-3.3334c-.715-1.243-1.073-2.599-1.073-4.068 0-2.0716.659-3.7289 1.977-4.9719 1.319-1.2806 3.24-1.9209 5.763-1.9209 2.449 0 4.746.5273 6.893 1.5819 2.147 1.0547 4.294 2.8627 6.441 5.4239 2.185 2.5237 4.52 6.0078 7.006 10.4524.113.1506.226.2636.339.3389.151.0377.282.0377.395 0 .151-.0753.245-.226.283-.4519.075-.226.056-.5085-.057-.8475l-2.655-17.0062c-.075-.339-.207-.5462-.396-.6215-.15-.0753-.301-.113-.452-.113-.376 0-1.111.226-2.203.678-1.055.4143-2.147.8475-3.277 1.2995-1.092.4143-1.846.6214-2.26.6214-.264 0-.791-.2071-1.582-.6214-.791-.452-1.94-.8852-3.446-1.2995-1.507-.452-3.428-.678-5.763-.678-5.725 0-10.302 1.356-13.729 4.0679-3.39 2.6743-5.085 6.5162-5.085 11.5258 0 2.9003.546 5.5181 1.638 7.8534 1.13 2.2976 3.032 4.388 5.707 6.2713.462.3193.955.6347 1.479.9461 10.799.9283 21.839 2.4625 32.499 4.5653z" fill="#ffa500"/><path d="m183.35 57.4495 6.399-20.8947c.489-1.6196 1.148-2.9567 1.977-4.0114.866-1.0546 1.789-1.7703 2.768-2.147l1.3-.5084c.264-.0754.433-.1507.508-.226.113-.0754.17-.1695.17-.2825 0-.1884-.057-.3014-.17-.339-.113-.0754-.263-.113-.452-.113h-12.599c-.151 0-.282.0376-.395.113-.113.0376-.17.1506-.17.339 0 .113.038.2071.113.2825.113.0753.301.1506.565.226l2.43.5084c1.356.2637 2.26.904 2.712 1.921s.433 2.3541-.057 4.0114l-6.448 21.0875c.449.0099.898.0209 1.349.0332z" fill="#ffa500"/><path d="m178.172 57.3606-7.52-23.8002c-.301-.8663-.32-1.5067-.057-1.921.264-.4143 1.017-.7533 2.26-1.017l3.164-.7344c.264-.0754.433-.1507.509-.226.075-.0754.113-.1695.113-.2825 0-.3014-.189-.452-.565-.452h-27.12c-.376 0-.565.1506-.565.452 0 .113.038.2071.113.2825.113.0753.302.1506.565.226l1.469.3389c.377.0377.697.2072.961.5085.263.3014.527.8287.791 1.582l2.276 6.9157-6.213 20.1561c.457-.0764.919-.1507 1.385-.2227l5.519-17.8366 5.463 16.5944c5.486-.4208 11.348-.606 17.452-.5637z" fill="#ffa500"/><path d="m129.825 64.9999c4.095-2.1998 9.531-3.9081 15.947-5.1464l-8.455-26.1236c-.301-.9417-.339-1.695-.113-2.26s.81-.9228 1.752-1.0735l2.825-.5084c.264-.0754.433-.1507.508-.226.113-.0754.17-.1695.17-.2825 0-.1884-.057-.3014-.17-.339-.075-.0754-.207-.113-.395-.113h-27.289c-.151 0-.283.0376-.396.113-.113.0376-.169.1506-.169.339 0 .113.056.2071.169.2825.076.0753.226.1506.452.226l2.204.4519c.527.113.941.3014 1.243.565.301.2637.527.6969.678 1.2995z" fill="#ffa500"/><path d="m9.60026 70.7402c.65574.1004 1.32754.1999 2.01464.2986-.244-.9052-.3661-1.9098-.3661-3.014v-54.3317l34.8348 60.5317c7.1627.3749 14.5867.602 21.9449.6287l-3.3881-5.5858c-.1507-.339-.3014-.6968-.452-1.0734-.1507-.3767-.226-.8099-.226-1.2995v-55.821c0-2.67429.7156-4.76475 2.1469-6.27139 1.4313-1.50663 3.164-2.54245 5.198-3.10744l2.2599-.67799c.452-.15066.678-.33899.678-.564987 0-.112999-.0565-.207164-.1695-.282495-.0753-.1129986-.2072-.169498-.3955-.169498h-21.6391c-.1883 0-.339.0564994-.452.169498-.0753.075331-.113.169496-.113.282495 0 .225997.226.414327.678.564987l3.0509.67799c2.1093.60265 3.8608 1.6573 5.2544 3.16395 1.4314 1.46897 2.147 3.54059 2.147 6.21488v54.4573l-10.2936-18.3781c-.3463.1751-.7037.3448-1.0723.5092-2.2947 1.0236-4.4665 1.593-6.5155 1.7082-2.0353.0796-3.8216-.2774-5.3589-1.0708-1.5482-.8182-2.6966-2.0661-3.445-3.7439-.7484-1.6779-.8809-3.3346-.3976-4.9702.263-.8898.673-1.7446 1.2301-2.5643-.5813-.1384-1.1327-.3299-1.654-.5747-1.4329-.692-2.496-1.8153-3.1894-3.3698-.7043-1.5791-.8532-3.1398-.4466-4.682.3957-1.5669 1.2523-3.0288 2.57-4.3857 1.0204-1.0508 2.2747-1.9753 3.7628-2.7735l-11.2928-20.16202c-.226-.414324-.4332-.696818-.6215-.84748-.1507-.1506668-.339-.226-.565-.226h-21.75211c-.226 0-.37666.0188339-.45199.0565016-.07533.0376633-.113.1129944-.113.2259934 0 .112998.09417.320162.2825.62149.22599.263665.41432.583825.56498.960485l5.36741 9.15283c.33899.5273.52732.9228.56499 1.1865.07533.226.11299.6026.11299 1.13v54.691c0 .9872-.09753 1.8924-.29261 2.7154z" fill="#ffa500"/><path clip-rule="evenodd" d="m114.781 70.9888c-9.696 2.257-22.2877 3.3926-35.6777 3.7446-2.1831-1.8175-4.0026-4.0161-5.4584-6.5956-2.1093-3.842-3.164-8.2677-3.164-13.2773 0-5.5369 1.0547-10.3205 3.164-14.3507 2.1093-4.068 5.1037-7.2131 8.9833-9.4354 3.9173-2.2223 8.5125-3.3334 13.7858-3.3334 4.633 0 8.625.9981 11.978 2.9944 3.39 1.9587 6.007 4.6518 7.853 8.0794 1.846 3.3899 2.769 7.2507 2.769 11.5823 0 .3766-.132.6968-.396.9605-.226.226-.621.339-1.186.339h-31.0574c.4407 5.9255 1.9981 10.4454 4.672 13.5597 3.2016 3.6913 7.4202 5.5369 12.6554 5.5369 3.993 0 7.308-1.0546 9.944-3.1639 2.637-2.1093 4.068-4.9343 4.294-8.4749 0-.1883.038-.3013.113-.339.113-.0753.188-.113.226-.113.113 0 .207.0377.283.113.113.0754.169.226.169.452-.113 3.9926-1.205 7.5709-3.277 10.7348-.216.3363-.44.6652-.673.9866zm-28.4815-20.5352h14.8035c.678 0 1.017-.3955 1.017-1.1865 0-7.0812-.791-12.2226-2.3726-15.4242-1.582-3.2393-3.3899-4.8589-5.4239-4.8589-1.5443 0-2.9379.6215-4.1809 1.8644-1.2053 1.243-2.1658 3.277-2.8815 6.1019-.6779 2.7873-1.0169 6.4786-1.0169 11.0738 0 .8331.0184 1.6429.0553 2.4295z" fill="#ffa500" fill-rule="evenodd"/><path d="m40.5646 27.7076c.1063-.2775.2568-.5188.4514-.7238l2.2802 4.0711c-.432.1009-.8583.0708-1.2788-.0903-.5709-.2187-1.0104-.6735-1.3186-1.3643-.3192-.7156-.3639-1.3465-.1342-1.8927z" fill="#ffa500"/><path d="m46.2053 36.374c.0188-.0084.0376-.0166.0563-.0247l2.8838 5.1486c-.163.1016-.3396.1948-.5298.2796-.8389.3742-1.6343.448-2.3863.2213-.7383-.2623-1.2945-.8129-1.6687-1.6518-.3742-.839-.4068-1.6084-.0977-2.3083.3227-.7356.9035-1.2905 1.7424-1.6647z" fill="#ffa500"/><path d="m231.447 57.7514c-.145-.3666-.303-.7275-.475-1.0829-1.054-2.26-2.825-4.2563-5.31-5.9889-2.486-1.7703-5.82-3.2581-10.001-4.4634-3.352-.9417-5.932-1.921-7.74-2.938s-3.07-2.1281-3.786-3.3334c-.715-1.243-1.073-2.599-1.073-4.068 0-2.0716.659-3.7289 1.977-4.9719 1.319-1.2806 3.24-1.9209 5.763-1.9209 2.449 0 4.746.5273 6.893 1.5819 2.147 1.0547 4.294 2.8627 6.441 5.4239 2.185 2.5237 4.52 6.0078 7.006 10.4524.113.1506.226.2636.339.3389.151.0377.282.0377.395 0 .151-.0753.245-.226.283-.4519.075-.226.056-.5085-.057-.8475l-2.655-17.0062c-.075-.339-.207-.5462-.396-.6215-.15-.0753-.301-.113-.452-.113-.376 0-1.111.226-2.203.678-1.055.4143-2.147.8475-3.277 1.2995-1.092.4143-1.846.6214-2.26.6214-.264 0-.791-.2071-1.582-.6214-.791-.452-1.94-.8852-3.446-1.2995-1.507-.452-3.428-.678-5.763-.678-5.725 0-10.302 1.356-13.729 4.0679-3.39 2.6743-5.085 6.5162-5.085 11.5258 0 2.3663.363 4.5445 1.09 6.5346 14.629 1.4141 27.944 4.4067 39.103 7.8821z" fill="#40e0d0"/><path d="m185.829 49.3527 3.92-12.7979c.489-1.6196 1.148-2.9567 1.977-4.0114.866-1.0546 1.789-1.7703 2.768-2.147l1.3-.5084c.264-.0754.433-.1507.508-.226.113-.0754.17-.1695.17-.2825 0-.1884-.057-.3014-.17-.339-.113-.0754-.263-.113-.452-.113h-12.599c-.151 0-.282.0376-.395.113-.113.0376-.17.1506-.17.339 0 .113.038.2071.113.2825.113.0753.301.1506.565.226l2.43.5084c1.356.2637 2.26.904 2.712 1.921s.433 2.3541-.057 4.0114l-3.958 12.9459c.447.0244.893.0504 1.338.078z" fill="#40e0d0"/><path d="m175.531 49.003-4.879-15.4426c-.301-.8663-.32-1.5067-.057-1.921.264-.4143 1.017-.7533 2.26-1.017l3.164-.7344c.264-.0754.433-.1507.509-.226.075-.0754.113-.1695.113-.2825 0-.3014-.189-.452-.565-.452h-27.12c-.376 0-.565.1506-.565.452 0 .113.038.2071.113.2825.113.0753.302.1506.565.226l1.469.3389c.377.0377.697.2072.961.5085.263.3014.527.8287.791 1.582l2.276 6.9157-3.495 11.3412c.461-.0632.922-.1243 1.382-.1834l2.804-9.061 2.778 8.439c5.94-.5618 11.786-.7988 17.496-.7659z" fill="#40e0d0"/><path d="m126.741 55.8392c5.508-1.654 10.998-2.9702 16.441-3.9884l-5.865-18.1209c-.301-.9417-.339-1.695-.113-2.26s.81-.9228 1.752-1.0735l2.825-.5084c.264-.0754.433-.1507.508-.226.113-.0754.17-.1695.17-.2825 0-.1884-.057-.3014-.17-.339-.075-.0754-.207-.113-.395-.113h-27.289c-.151 0-.283.0376-.396.113-.113.0376-.169.1506-.169.339 0 .113.056.2071.169.2825.076.0753.226.1506.452.226l2.204.4519c.527.113.941.3014 1.243.565.301.2637.527.6969.678 1.2995z" fill="#40e0d0"/><path d="m9.89287 61.0931c.44443.1328.89653.2641 1.35593.3938v-47.7938l30.3021 52.6553c6.9376.4636 14.4449.5944 22.4115.2905v-55.5651c0-2.67429.7156-4.76475 2.1469-6.27139 1.4313-1.50663 3.164-2.54245 5.198-3.10744l2.2599-.67799c.452-.15066.678-.33899.678-.564987 0-.112999-.0565-.207164-.1695-.282495-.0753-.1129986-.2072-.169498-.3955-.169498h-21.6391c-.1883 0-.339.0564994-.452.169498-.0753.075331-.113.169496-.113.282495 0 .225997.226.414327.678.564987l3.0509.67799c2.1093.60265 3.8608 1.6573 5.2544 3.16395 1.4314 1.46897 2.147 3.54059 2.147 6.21488v54.4573l-10.2936-18.3781c-.3463.1751-.7037.3448-1.0723.5092-2.2947 1.0236-4.4665 1.593-6.5155 1.7082-2.0353.0796-3.8216-.2774-5.3589-1.0708-1.5482-.8182-2.6966-2.0661-3.445-3.7439-.7484-1.6779-.8809-3.3346-.3976-4.9702.263-.8898.673-1.7446 1.2301-2.5643-.5813-.1384-1.1327-.3299-1.654-.5747-1.4329-.692-2.496-1.8153-3.1894-3.3698-.7043-1.5791-.8532-3.1398-.4466-4.682.3957-1.5669 1.2523-3.0288 2.57-4.3857 1.0204-1.0508 2.2747-1.9753 3.7628-2.7735l-11.2928-20.16202c-.226-.414324-.4332-.696818-.6215-.84748-.1507-.1506668-.339-.226-.565-.226h-21.75211c-.226 0-.37666.0188339-.45199.0565016-.07533.0376633-.113.1129944-.113.2259934 0 .112998.09417.320162.2825.62149.22599.263665.41432.583825.56498.960485l5.36741 9.15283c.33899.5273.52732.9228.56499 1.1865.07533.226.11299.6026.11299 1.13z" fill="#40e0d0"/><path clip-rule="evenodd" d="m90.1951 64.164c-6.0152.9011-11.8697 1.5498-17.5281 1.9785-1.4574-3.3573-2.1861-7.118-2.1861-11.282 0-5.5369 1.0547-10.3205 3.164-14.3507 2.1093-4.068 5.1037-7.2131 8.9833-9.4354 3.9173-2.2223 8.5125-3.3334 13.7858-3.3334 4.633 0 8.625.9981 11.978 2.9944 3.39 1.9587 6.007 4.6518 7.853 8.0794 1.846 3.3899 2.769 7.2507 2.769 11.5823 0 .3766-.132.6968-.396.9605-.226.226-.621.339-1.186.339h-31.0574c.3917 5.2658 1.6652 9.4217 3.8205 12.4674zm-3.8956-13.7104h14.8035c.678 0 1.017-.3955 1.017-1.1865 0-7.0812-.791-12.2226-2.3726-15.4242-1.582-3.2393-3.3899-4.8589-5.4239-4.8589-1.5443 0-2.9379.6215-4.1809 1.8644-1.2053 1.243-2.1658 3.277-2.8815 6.1019-.6779 2.7873-1.0169 6.4786-1.0169 11.0738 0 .8331.0184 1.6429.0553 2.4295z" fill="#40e0d0" fill-rule="evenodd"/><path d="m40.5646 27.7076c.1063-.2775.2568-.5188.4514-.7238l2.2802 4.0711c-.432.1009-.8583.0708-1.2788-.0903-.5709-.2187-1.0104-.6735-1.3186-1.3643-.3192-.7156-.3639-1.3465-.1342-1.8927z" fill="#40e0d0"/><path d="m46.2053 36.374c.0188-.0084.0376-.0166.0563-.0247l2.8838 5.1486c-.163.1016-.3396.1948-.5298.2796-.8389.3742-1.6343.448-2.3863.2213-.7383-.2623-1.2945-.8129-1.6687-1.6518-.3742-.839-.4068-1.6084-.0977-2.3083.3227-.7356.9035-1.2905 1.7424-1.6647z" fill="#40e0d0"/><g fill="#000"><path d="m218.992 47.3018c-1.043-.3843-2.153-.7462-3.331-1.0856-3.352-.9417-5.932-1.921-7.74-2.938s-3.07-2.1281-3.786-3.3334c-.715-1.243-1.073-2.599-1.073-4.068 0-2.0716.659-3.7289 1.977-4.9719 1.319-1.2806 3.24-1.9209 5.763-1.9209 2.449 0 4.746.5273 6.893 1.5819 2.147 1.0547 4.294 2.8627 6.441 5.4239 2.185 2.5237 4.52 6.0078 7.006 10.4524.113.1506.226.2636.339.3389.151.0377.282.0377.395 0 .151-.0753.245-.226.283-.4519.075-.226.056-.5085-.057-.8475l-2.655-17.0062c-.075-.339-.207-.5462-.396-.6215-.15-.0753-.301-.113-.452-.113-.376 0-1.111.226-2.203.678-1.055.4143-2.147.8475-3.277 1.2995-1.092.4143-1.846.6214-2.26.6214-.264 0-.791-.2071-1.582-.6214-.791-.452-1.94-.8852-3.446-1.2995-1.507-.452-3.428-.678-5.763-.678-5.725 0-10.302 1.356-13.729 4.0679-3.117 2.4588-4.801 5.9047-5.052 10.3376 9.982 1.1207 19.309 2.9596 27.705 5.1553z"/><path d="m188.136 41.8191 1.613-5.2643c.489-1.6196 1.148-2.9567 1.977-4.0114.866-1.0546 1.789-1.7703 2.768-2.147l1.3-.5084c.264-.0754.433-.1507.508-.226.113-.0754.17-.1695.17-.2825 0-.1884-.057-.3014-.17-.339-.113-.0754-.263-.113-.452-.113h-12.599c-.151 0-.282.0376-.395.113-.113.0376-.17.1506-.17.339 0 .113.038.2071.113.2825.113.0753.301.1506.565.226l2.43.5084c1.356.2637 2.26.904 2.712 1.921s.433 2.3541-.057 4.0114l-1.641 5.368c.444.0393.887.0801 1.328.1223z"/><path d="m172.999 40.9871-2.347-7.4267c-.301-.8663-.32-1.5067-.057-1.921.264-.4143 1.017-.7533 2.26-1.017l3.164-.7344c.264-.0754.433-.1507.509-.226.075-.0754.113-.1695.113-.2825 0-.3014-.189-.452-.565-.452h-27.12c-.376 0-.565.1506-.565.452 0 .113.038.2071.113.2825.113.0753.302.1506.565.226l1.469.3389c.377.0377.697.2072.961.5085.263.3014.527.8287.791 1.582l2.276 6.9157-.779 2.5292c.459-.0441.917-.0862 1.375-.1265l.095-.3059.095.2894c5.996-.5202 11.893-.7119 17.647-.6322z"/><path d="m123.921 47.4598c5.558-1.6215 11.096-2.9016 16.584-3.8811l-3.188-9.8488c-.301-.9417-.339-1.695-.113-2.26s.81-.9228 1.752-1.0735l2.825-.5084c.264-.0754.433-.1507.508-.226.113-.0754.17-.1695.17-.2825 0-.1884-.057-.3014-.17-.339-.075-.0754-.207-.113-.395-.113h-27.289c-.151 0-.283.0376-.396.113-.113.0376-.169.1506-.169.339 0 .113.056.2071.169.2825.076.0753.226.1506.452.226l2.204.4519c.527.113.941.3014 1.243.565.301.2637.527.6969.678 1.2995z"/><path d="m9.89287 54.1649c.44593.1133.89793.2251 1.35593.3354v-40.8072l25.6554 44.5807c6.7667.4747 14.0844.6326 21.849.3777l-6.4404-11.4985c-.3463.1751-.7037.3448-1.0723.5092-2.2947 1.0236-4.4665 1.593-6.5155 1.7082-2.0353.0796-3.8216-.2774-5.3589-1.0708-1.5482-.8182-2.6966-2.0661-3.445-3.7439-.7484-1.6779-.8809-3.3346-.3976-4.9702.263-.8898.673-1.7446 1.2301-2.5643-.5813-.1384-1.1327-.3299-1.654-.5747-1.4329-.692-2.496-1.8153-3.1894-3.3698-.7043-1.5791-.8532-3.1398-.4466-4.682.3957-1.5669 1.2523-3.0288 2.57-4.3857 1.0204-1.0508 2.2747-1.9753 3.7628-2.7735l-11.2928-20.16202c-.226-.414324-.4332-.696818-.6215-.84748-.1507-.1506668-.339-.226-.565-.226h-21.75211c-.226 0-.37666.0188339-.45199.0565016-.07533.0376633-.113.1129944-.113.2259934 0 .112998.09417.320162.2825.62149.22599.263665.41432.583825.56498.960485l5.36741 9.15283c.33899.5273.52732.9228.56499 1.1865.07533.226.11299.6026.11299 1.13z"/><path d="m62.6064 58.4925c.4506-.0224.9026-.0462 1.356-.0714v-47.3473c0-2.67429.7156-4.76475 2.1469-6.27139 1.4313-1.50663 3.164-2.54245 5.198-3.10744l2.2599-.67799c.452-.15066.678-.33899.678-.564987 0-.112999-.0565-.207164-.1695-.282495-.0753-.1129986-.2072-.169498-.3955-.169498h-21.6391c-.1883 0-.339.0564994-.452.169498-.0753.075331-.113.169496-.113.282495 0 .225997.226.414327.678.564987l3.0509.67799c2.1093.60265 3.8608 1.6573 5.2544 3.16395 1.4314 1.46897 2.147 3.54059 2.147 6.21488z"/><path clip-rule="evenodd" d="m86.9423 56.0206c-5.5862.8544-11.0357 1.4909-16.3203 1.9353-.094-1.0058-.1411-2.0376-.1411-3.0954 0-5.5369 1.0547-10.3205 3.164-14.3507 2.1093-4.068 5.1037-7.2131 8.9833-9.4354 3.9173-2.2223 8.5125-3.3334 13.7858-3.3334 4.633 0 8.625.9981 11.978 2.9944 3.39 1.9587 6.007 4.6518 7.853 8.0794 1.635 3.0033 2.546 6.3761 2.733 10.1184-3.466 1.0083-6.904 1.9277-10.307 2.7634h-22.2964c.1143 1.5357.3035 2.9771.5677 4.324zm-.6428-5.567h14.8035c.678 0 1.017-.3955 1.017-1.1865 0-7.0812-.791-12.2226-2.3726-15.4242-1.582-3.2393-3.3899-4.8589-5.4239-4.8589-1.5443 0-2.9379.6215-4.1809 1.8644-1.2053 1.243-2.1658 3.277-2.8815 6.1019-.6779 2.7873-1.0169 6.4786-1.0169 11.0738 0 .8331.0184 1.6429.0553 2.4295z" fill-rule="evenodd"/><path d="m40.5646 27.7076c.1063-.2775.2568-.5188.4514-.7238l2.2802 4.0711c-.432.1009-.8583.0708-1.2788-.0903-.5709-.2187-1.0104-.6735-1.3186-1.3643-.3192-.7156-.3639-1.3465-.1342-1.8927z"/><path d="m46.2053 36.374c.0188-.0084.0376-.0166.0563-.0247l2.8838 5.1486c-.163.1016-.3396.1948-.5298.2796-.8389.3742-1.6343.448-2.3863.2213-.7383-.2623-1.2945-.8129-1.6687-1.6518-.3742-.839-.4068-1.6084-.0977-2.3083.3227-.7356.9035-1.2905 1.7424-1.6647z"/></g></svg>